<svg xmlns="http://www.w3.org/2000/svg" width="830" height="623" viewBox="0 0 830 623" version="1.1"><path d="M 450.933 111.188 C 449.531 112.146, 449.658 113.376, 452.142 122.879 C 453.668 128.721, 454.936 134.448, 454.959 135.606 C 454.998 137.598, 455.273 137.658, 460.024 136.719 C 463.909 135.951, 464.946 135.360, 464.598 134.113 C 464.351 133.226, 463.856 130.925, 463.497 129 C 463.139 127.075, 462.139 122.889, 461.276 119.698 C 459.833 114.363, 459.497 113.920, 457.104 114.198 C 455.052 114.436, 454.432 114.023, 454.180 112.250 C 453.829 109.773, 453.271 109.591, 450.933 111.188 M 438.776 124.250 C 437.320 125.383, 437.438 126.191, 440.043 132.875 C 441.623 136.931, 443.116 140.450, 443.361 140.694 C 443.686 141.019, 450.828 139.384, 452.675 138.561 C 452.771 138.519, 452.042 135.562, 451.054 131.992 C 449.576 126.648, 448.926 125.562, 447.379 125.850 C 446.346 126.042, 445.193 126.694, 444.819 127.298 C 444.431 127.923, 443.846 127.234, 443.460 125.698 C 442.722 122.757, 441.271 122.309, 438.776 124.250 M 276.093 203.089 C 272.497 204.527, 256.805 220.838, 254.052 226 C 252.212 229.448, 251.582 232.369, 251.354 238.500 C 250.819 252.939, 251.495 255.452, 257.541 261.498 C 260.473 264.430, 263.769 268.586, 264.865 270.735 C 266.271 273.492, 268.322 275.402, 271.829 277.221 C 276.685 279.741, 276.866 279.760, 279.701 278.036 C 281.618 276.870, 283.036 274.825, 283.880 272.006 L 285.158 267.740 291.409 268.380 C 302.711 269.538, 312.045 272.589, 321.244 278.131 L 324.988 280.386 328.120 277.443 C 331.728 274.054, 335.976 265.686, 335.990 261.941 C 336.003 258.701, 334.937 257.374, 327.262 251.070 C 320.484 245.503, 319.276 243.655, 315.412 232.946 C 312.578 225.089, 312.741 223.429, 316.487 222.005 C 320.135 220.618, 321.608 216.881, 320.019 213.045 C 319.325 211.370, 318.341 210, 317.833 210 C 317.325 210, 315.692 208.779, 314.205 207.287 C 311.952 205.027, 310.521 204.537, 305.646 204.358 C 302.426 204.239, 298.826 204.505, 297.646 204.949 C 296.195 205.494, 294.298 205.147, 291.790 203.878 C 287.801 201.859, 280.133 201.474, 276.093 203.089 M 403.750 223.080 C 400.938 224.718, 401.603 229.463, 405.329 234.343 C 408.422 238.396, 411.898 247.435, 410.789 248.544 C 410.522 248.812, 407.681 249.714, 404.476 250.548 C 392.273 253.727, 380.635 262.550, 375.262 272.697 C 373.572 275.889, 368.722 289.253, 364.485 302.396 C 357.456 324.195, 355.648 328.537, 343.890 351.872 C 336.800 365.940, 331 378.013, 331 378.700 C 331 379.545, 330.063 379.763, 328.107 379.371 C 325.596 378.869, 324.875 379.290, 322.663 382.545 L 320.113 386.298 319.473 383.399 C 318.385 378.473, 318.040 377.820, 316.749 378.245 C 316.062 378.471, 315.275 380.421, 315 382.578 L 314.500 386.500 312.750 384.027 C 311.788 382.668, 311 380.980, 311 380.277 C 311 378.446, 308.053 378.698, 307.327 380.591 C 306.423 382.946, 309.613 388.867, 312.492 390.178 C 314.816 391.237, 315 391.826, 315 398.218 C 315 410.344, 317.897 417.128, 322.346 415.421 C 323.521 414.970, 323.981 416.083, 324.514 420.674 C 326.430 437.163, 330.187 448.763, 338.245 463.060 C 346.532 477.765, 361.428 491.722, 377.671 500 C 382.527 502.475, 386.578 504.503, 386.673 504.507 C 386.769 504.510, 386.088 511.485, 385.160 520.007 L 383.473 535.500 378.798 536.039 C 374.056 536.586, 370 539.186, 370 541.680 C 370 545.341, 381.926 545.581, 385.772 541.998 C 387.143 540.720, 387.897 538.212, 388.370 533.349 C 388.737 529.582, 389.533 521.953, 390.139 516.396 L 391.241 506.292 398.188 508.116 C 413.435 512.119, 434.132 512.444, 447.393 508.889 C 450.224 508.131, 451.478 508.156, 451.988 508.981 C 452.374 509.606, 453.498 516.503, 454.486 524.308 C 455.473 532.114, 456.665 539.534, 457.134 540.798 C 458.817 545.332, 469.419 547.387, 473.530 543.975 C 476.633 541.400, 470.968 537, 464.550 537 C 462.597 537, 460.979 536.888, 460.952 536.750 C 460.926 536.612, 459.907 529.665, 458.688 521.311 L 456.471 506.121 461.458 503.811 C 474.498 497.768, 489.628 484.848, 497.912 472.678 C 503.289 464.780, 509.938 449.697, 512.507 439.572 C 514.892 430.170, 519.296 421.613, 521.404 422.286 C 522.007 422.478, 523.400 424.291, 524.500 426.315 C 526.329 429.679, 529 431.316, 529 429.071 C 529 428.561, 529.763 427.380, 530.695 426.448 C 532.288 424.855, 532.141 424.522, 528.258 420.900 L 524.126 417.046 526.404 415.254 C 529.689 412.670, 531.222 409.288, 530.532 406.148 C 530.069 404.038, 530.511 402.868, 532.466 401.032 C 539.304 394.608, 530.677 381.358, 513.511 371.921 C 507.139 368.418, 506.822 368.045, 498.665 354.421 C 488.496 337.435, 483.483 326.572, 473.608 300.120 C 469.424 288.912, 466 279.574, 466 279.370 C 466 279.167, 467.043 279, 468.318 279 C 470.440 279, 481.036 276.234, 481.846 275.468 C 482.037 275.288, 480.687 272.304, 478.846 268.836 C 474.074 259.844, 464.828 250.759, 456.374 246.755 C 449.760 243.623, 449.065 243.506, 438 243.663 C 431.675 243.753, 425.432 243.978, 424.128 244.163 C 422.122 244.448, 421.568 243.881, 420.546 240.500 C 418.795 234.709, 416.372 230.418, 412.327 225.940 C 408.683 221.907, 406.827 221.288, 403.750 223.080 M 295.972 231.052 C 294.930 232.999, 295.322 233.758, 299.615 238.117 C 304.853 243.435, 307.601 244.496, 306.434 240.750 C 305.703 238.404, 301.145 232.195, 298.608 230.089 C 297.412 229.097, 296.923 229.275, 295.972 231.052 M 289.579 240.872 C 289.271 241.370, 290.693 243.054, 292.738 244.614 L 296.457 247.450 294.182 244.255 C 291.499 240.487, 290.342 239.637, 289.579 240.872 M 284.469 248.051 C 284.101 248.646, 283.957 249.236, 284.150 249.362 C 284.342 249.488, 287.088 251.333, 290.250 253.462 C 296.502 257.671, 299.463 257.446, 294.326 253.152 C 289.216 248.882, 285.230 246.819, 284.469 248.051 M 283.326 258.747 C 283.502 261.108, 284.024 261.547, 286.994 261.830 L 290.455 262.161 288.489 259.988 C 287.407 258.793, 285.757 257.405, 284.821 256.904 C 283.394 256.141, 283.153 256.438, 283.326 258.747 M 408.500 258.017 C 398.106 260.089, 386.946 266.446, 381.764 273.246 C 377.257 279.159, 374.327 286.254, 367.045 308.891 C 360.922 327.924, 358.372 334.166, 350.040 350.520 C 333.499 382.986, 330.362 393.508, 331.282 413.420 C 332.121 431.557, 336.989 446.275, 347.021 461 C 359.228 478.917, 378.054 491.999, 399.792 497.669 C 412.891 501.085, 431.542 501.276, 443.500 498.116 C 469.500 491.245, 490.334 471.723, 500.451 444.750 C 502.969 438.037, 502.971 438, 500.888 438 C 496.873 438, 484.568 430.576, 478.425 424.447 C 471.908 417.946, 466 407.650, 466 402.795 C 466 400.990, 467.014 398.896, 468.708 397.205 C 470.630 395.285, 471.445 393.411, 471.513 390.750 C 471.587 387.860, 472.399 386.235, 475.054 383.659 C 476.949 381.822, 479.307 379.124, 480.293 377.664 C 481.501 375.876, 483.313 374.814, 485.847 374.408 C 488.378 374.004, 489.918 373.102, 490.554 371.653 C 491.074 370.469, 492.922 368.789, 494.661 367.920 L 497.821 366.341 491.799 356.420 C 481.563 339.558, 477.134 329.769, 465.817 299 C 459.864 282.815, 457.370 278.318, 450.130 270.710 C 439.780 259.835, 423.808 254.965, 408.500 258.017 M 439.826 334.712 C 434.211 338.195, 433.231 346.384, 437.872 351.026 C 441.572 354.726, 444.862 355.502, 449.186 353.696 C 452.609 352.266, 456 347.216, 456 343.549 C 456 340.572, 453.021 336.062, 450.033 334.517 C 446.272 332.572, 443.180 332.632, 439.826 334.712 M 380.217 335.561 C 378.991 336.419, 377.276 338.499, 376.406 340.182 C 371.094 350.454, 384.870 360.284, 393.077 352.077 C 396.300 348.854, 396.943 344.164, 394.805 339.472 C 392.543 334.507, 384.717 332.409, 380.217 335.561 M 439.446 340.087 C 438.416 341.755, 440.733 343.667, 442.113 342.287 C 443.267 341.133, 442.545 339, 441 339 C 440.515 339, 439.816 339.489, 439.446 340.087 M 380.446 341.087 C 379.416 342.755, 381.733 344.667, 383.113 343.287 C 384.267 342.133, 383.545 340, 382 340 C 381.515 340, 380.816 340.489, 380.446 341.087 M 407.615 352.719 C 406.300 354.034, 407.138 355.160, 410.468 356.551 C 415.253 358.550, 420.330 358.364, 423.139 356.086 C 426.427 353.420, 424.798 352.393, 420.510 354.428 C 416.852 356.164, 414.287 355.916, 410.365 353.448 C 409.190 352.709, 407.953 352.381, 407.615 352.719 M 407 370.082 C 396.653 374.768, 385.679 392.037, 384.112 406.102 C 381.477 429.741, 391.053 445.598, 410.064 449.076 C 423.682 451.568, 437.546 446.858, 443.736 437.636 C 448.453 430.609, 449.500 426.026, 449.500 412.404 L 449.500 400.308 444.754 390.751 C 439.611 380.392, 433.132 373.367, 425.500 369.874 C 420.204 367.451, 412.622 367.536, 407 370.082 M 401.106 380.801 C 399.770 383.298, 401.873 386.364, 404.566 385.845 C 407.494 385.281, 407.283 379.611, 404.318 379.189 C 402.962 378.996, 401.746 379.607, 401.106 380.801 M 321.578 390.690 C 318.812 393.255, 318.767 393.470, 319.439 400.884 C 320.107 408.255, 320.506 409.827, 321.466 408.867 C 322.081 408.252, 325.193 388.860, 324.748 388.415 C 324.559 388.225, 323.132 389.249, 321.578 390.690 M 397.214 390.243 C 395.315 392.530, 390.024 404.373, 389.387 407.761 C 388.624 411.814, 390.497 414.662, 392.714 412.822 C 395.762 410.293, 400.257 399.621, 400.379 394.626 C 400.502 389.623, 399.211 387.836, 397.214 390.243 M 510.667 396.667 C 510.300 397.033, 510 398.600, 510 400.148 C 510 402.319, 510.574 403.106, 512.513 403.593 C 516.822 404.674, 519.814 400.214, 516.800 397.200 C 515.506 395.906, 511.753 395.580, 510.667 396.667" stroke="none" fill="#48a47d" fill-rule="evenodd"/><path d="M 0 311.501 L 0 623.002 415.250 622.751 L 830.500 622.500 830.752 311.250 L 831.003 0 415.502 0 L 0 0 0 311.501 M 0.494 312 C 0.494 483.325, 0.609 553.413, 0.750 467.750 C 0.891 382.088, 0.891 241.913, 0.750 156.250 C 0.609 70.588, 0.494 140.675, 0.494 312 M 450.933 111.188 C 449.531 112.146, 449.658 113.376, 452.142 122.879 C 453.668 128.721, 454.936 134.448, 454.959 135.606 C 454.998 137.598, 455.273 137.658, 460.024 136.719 C 463.909 135.951, 464.946 135.360, 464.598 134.113 C 464.351 133.226, 463.856 130.925, 463.497 129 C 463.139 127.075, 462.139 122.889, 461.276 119.698 C 459.833 114.363, 459.497 113.920, 457.104 114.198 C 455.052 114.436, 454.432 114.023, 454.180 112.250 C 453.829 109.773, 453.271 109.591, 450.933 111.188 M 438.776 124.250 C 437.320 125.383, 437.438 126.191, 440.043 132.875 C 441.623 136.931, 443.116 140.450, 443.361 140.694 C 443.686 141.019, 450.828 139.384, 452.675 138.561 C 452.771 138.519, 452.042 135.562, 451.054 131.992 C 449.576 126.648, 448.926 125.562, 447.379 125.850 C 446.346 126.042, 445.193 126.694, 444.819 127.298 C 444.431 127.923, 443.846 127.234, 443.460 125.698 C 442.722 122.757, 441.271 122.309, 438.776 124.250 M 276.093 203.089 C 272.497 204.527, 256.805 220.838, 254.052 226 C 252.212 229.448, 251.582 232.369, 251.354 238.500 C 250.819 252.939, 251.495 255.452, 257.541 261.498 C 260.473 264.430, 263.769 268.586, 264.865 270.735 C 266.271 273.492, 268.322 275.402, 271.829 277.221 C 276.685 279.741, 276.866 279.760, 279.701 278.036 C 281.618 276.870, 283.036 274.825, 283.880 272.006 L 285.158 267.740 291.409 268.380 C 302.711 269.538, 312.045 272.589, 321.244 278.131 L 324.988 280.386 328.120 277.443 C 331.728 274.054, 335.976 265.686, 335.990 261.941 C 336.003 258.701, 334.937 257.374, 327.262 251.070 C 320.484 245.503, 319.276 243.655, 315.412 232.946 C 312.578 225.089, 312.741 223.429, 316.487 222.005 C 320.135 220.618, 321.608 216.881, 320.019 213.045 C 319.325 211.370, 318.341 210, 317.833 210 C 317.325 210, 315.692 208.779, 314.205 207.287 C 311.952 205.027, 310.521 204.537, 305.646 204.358 C 302.426 204.239, 298.826 204.505, 297.646 204.949 C 296.195 205.494, 294.298 205.147, 291.790 203.878 C 287.801 201.859, 280.133 201.474, 276.093 203.089 M 403.750 223.080 C 400.938 224.718, 401.603 229.463, 405.329 234.343 C 408.422 238.396, 411.898 247.435, 410.789 248.544 C 410.522 248.812, 407.681 249.714, 404.476 250.548 C 392.273 253.727, 380.635 262.550, 375.262 272.697 C 373.572 275.889, 368.722 289.253, 364.485 302.396 C 357.456 324.195, 355.648 328.537, 343.890 351.872 C 336.800 365.940, 331 378.013, 331 378.700 C 331 379.545, 330.063 379.763, 328.107 379.371 C 325.596 378.869, 324.875 379.290, 322.663 382.545 L 320.113 386.298 319.473 383.399 C 318.385 378.473, 318.040 377.820, 316.749 378.245 C 316.062 378.471, 315.275 380.421, 315 382.578 L 314.500 386.500 312.750 384.027 C 311.788 382.668, 311 380.980, 311 380.277 C 311 378.446, 308.053 378.698, 307.327 380.591 C 306.423 382.946, 309.613 388.867, 312.492 390.178 C 314.816 391.237, 315 391.826, 315 398.218 C 315 410.344, 317.897 417.128, 322.346 415.421 C 323.521 414.970, 323.981 416.083, 324.514 420.674 C 326.430 437.163, 330.187 448.763, 338.245 463.060 C 346.532 477.765, 361.428 491.722, 377.671 500 C 382.527 502.475, 386.578 504.503, 386.673 504.507 C 386.769 504.510, 386.088 511.485, 385.160 520.007 L 383.473 535.500 378.798 536.039 C 374.056 536.586, 370 539.186, 370 541.680 C 370 545.341, 381.926 545.581, 385.772 541.998 C 387.143 540.720, 387.897 538.212, 388.370 533.349 C 388.737 529.582, 389.533 521.953, 390.139 516.396 L 391.241 506.292 398.188 508.116 C 413.435 512.119, 434.132 512.444, 447.393 508.889 C 450.224 508.131, 451.478 508.156, 451.988 508.981 C 452.374 509.606, 453.498 516.503, 454.486 524.308 C 455.473 532.114, 456.665 539.534, 457.134 540.798 C 458.817 545.332, 469.419 547.387, 473.530 543.975 C 476.633 541.400, 470.968 537, 464.550 537 C 462.597 537, 460.979 536.888, 460.952 536.750 C 460.926 536.612, 459.907 529.665, 458.688 521.311 L 456.471 506.121 461.458 503.811 C 474.498 497.768, 489.628 484.848, 497.912 472.678 C 503.289 464.780, 509.938 449.697, 512.507 439.572 C 514.892 430.170, 519.296 421.613, 521.404 422.286 C 522.007 422.478, 523.400 424.291, 524.500 426.315 C 526.329 429.679, 529 431.316, 529 429.071 C 529 428.561, 529.763 427.380, 530.695 426.448 C 532.288 424.855, 532.141 424.522, 528.258 420.900 L 524.126 417.046 526.404 415.254 C 529.689 412.670, 531.222 409.288, 530.532 406.148 C 530.069 404.038, 530.511 402.868, 532.466 401.032 C 539.304 394.608, 530.677 381.358, 513.511 371.921 C 507.139 368.418, 506.822 368.045, 498.665 354.421 C 488.496 337.435, 483.483 326.572, 473.608 300.120 C 469.424 288.912, 466 279.574, 466 279.370 C 466 279.167, 467.043 279, 468.318 279 C 470.440 279, 481.036 276.234, 481.846 275.468 C 482.037 275.288, 480.687 272.304, 478.846 268.836 C 474.074 259.844, 464.828 250.759, 456.374 246.755 C 449.760 243.623, 449.065 243.506, 438 243.663 C 431.675 243.753, 425.432 243.978, 424.128 244.163 C 422.122 244.448, 421.568 243.881, 420.546 240.500 C 418.795 234.709, 416.372 230.418, 412.327 225.940 C 408.683 221.907, 406.827 221.288, 403.750 223.080 M 295.972 231.052 C 294.930 232.999, 295.322 233.758, 299.615 238.117 C 304.853 243.435, 307.601 244.496, 306.434 240.750 C 305.703 238.404, 301.145 232.195, 298.608 230.089 C 297.412 229.097, 296.923 229.275, 295.972 231.052 M 289.579 240.872 C 289.271 241.370, 290.693 243.054, 292.738 244.614 L 296.457 247.450 294.182 244.255 C 291.499 240.487, 290.342 239.637, 289.579 240.872 M 284.469 248.051 C 284.101 248.646, 283.957 249.236, 284.150 249.362 C 284.342 249.488, 287.088 251.333, 290.250 253.462 C 296.502 257.671, 299.463 257.446, 294.326 253.152 C 289.216 248.882, 285.230 246.819, 284.469 248.051 M 283.326 258.747 C 283.502 261.108, 284.024 261.547, 286.994 261.830 L 290.455 262.161 288.489 259.988 C 287.407 258.793, 285.757 257.405, 284.821 256.904 C 283.394 256.141, 283.153 256.438, 283.326 258.747 M 408.500 258.017 C 398.106 260.089, 386.946 266.446, 381.764 273.246 C 377.257 279.159, 374.327 286.254, 367.045 308.891 C 360.922 327.924, 358.372 334.166, 350.040 350.520 C 333.499 382.986, 330.362 393.508, 331.282 413.420 C 332.121 431.557, 336.989 446.275, 347.021 461 C 359.228 478.917, 378.054 491.999, 399.792 497.669 C 412.891 501.085, 431.542 501.276, 443.500 498.116 C 469.500 491.245, 490.334 471.723, 500.451 444.750 C 502.969 438.037, 502.971 438, 500.888 438 C 496.873 438, 484.568 430.576, 478.425 424.447 C 471.908 417.946, 466 407.650, 466 402.795 C 466 400.990, 467.014 398.896, 468.708 397.205 C 470.630 395.285, 471.445 393.411, 471.513 390.750 C 471.587 387.860, 472.399 386.235, 475.054 383.659 C 476.949 381.822, 479.307 379.124, 480.293 377.664 C 481.501 375.876, 483.313 374.814, 485.847 374.408 C 488.378 374.004, 489.918 373.102, 490.554 371.653 C 491.074 370.469, 492.922 368.789, 494.661 367.920 L 497.821 366.341 491.799 356.420 C 481.563 339.558, 477.134 329.769, 465.817 299 C 459.864 282.815, 457.370 278.318, 450.130 270.710 C 439.780 259.835, 423.808 254.965, 408.500 258.017 M 439.826 334.712 C 434.211 338.195, 433.231 346.384, 437.872 351.026 C 441.572 354.726, 444.862 355.502, 449.186 353.696 C 452.609 352.266, 456 347.216, 456 343.549 C 456 340.572, 453.021 336.062, 450.033 334.517 C 446.272 332.572, 443.180 332.632, 439.826 334.712 M 380.217 335.561 C 378.991 336.419, 377.276 338.499, 376.406 340.182 C 371.094 350.454, 384.870 360.284, 393.077 352.077 C 396.300 348.854, 396.943 344.164, 394.805 339.472 C 392.543 334.507, 384.717 332.409, 380.217 335.561 M 439.446 340.087 C 438.416 341.755, 440.733 343.667, 442.113 342.287 C 443.267 341.133, 442.545 339, 441 339 C 440.515 339, 439.816 339.489, 439.446 340.087 M 380.446 341.087 C 379.416 342.755, 381.733 344.667, 383.113 343.287 C 384.267 342.133, 383.545 340, 382 340 C 381.515 340, 380.816 340.489, 380.446 341.087 M 407.615 352.719 C 406.300 354.034, 407.138 355.160, 410.468 356.551 C 415.253 358.550, 420.330 358.364, 423.139 356.086 C 426.427 353.420, 424.798 352.393, 420.510 354.428 C 416.852 356.164, 414.287 355.916, 410.365 353.448 C 409.190 352.709, 407.953 352.381, 407.615 352.719 M 407 370.082 C 396.653 374.768, 385.679 392.037, 384.112 406.102 C 381.477 429.741, 391.053 445.598, 410.064 449.076 C 423.682 451.568, 437.546 446.858, 443.736 437.636 C 448.453 430.609, 449.500 426.026, 449.500 412.404 L 449.500 400.308 444.754 390.751 C 439.611 380.392, 433.132 373.367, 425.500 369.874 C 420.204 367.451, 412.622 367.536, 407 370.082 M 401.106 380.801 C 399.770 383.298, 401.873 386.364, 404.566 385.845 C 407.494 385.281, 407.283 379.611, 404.318 379.189 C 402.962 378.996, 401.746 379.607, 401.106 380.801 M 321.578 390.690 C 318.812 393.255, 318.767 393.470, 319.439 400.884 C 320.107 408.255, 320.506 409.827, 321.466 408.867 C 322.081 408.252, 325.193 388.860, 324.748 388.415 C 324.559 388.225, 323.132 389.249, 321.578 390.690 M 397.214 390.243 C 395.315 392.530, 390.024 404.373, 389.387 407.761 C 388.624 411.814, 390.497 414.662, 392.714 412.822 C 395.762 410.293, 400.257 399.621, 400.379 394.626 C 400.502 389.623, 399.211 387.836, 397.214 390.243 M 510.667 396.667 C 510.300 397.033, 510 398.600, 510 400.148 C 510 402.319, 510.574 403.106, 512.513 403.593 C 516.822 404.674, 519.814 400.214, 516.800 397.200 C 515.506 395.906, 511.753 395.580, 510.667 396.667" stroke="none" fill="#f8f2ee" fill-rule="evenodd"/></svg>